<?xml version="1.0" ?><!-- Uploaded to: SVG Repo, www.svgrepo.com, Generator: SVG Repo Mixer Tools -->
<svg width="800px" height="800px" viewBox="0 0 120 120" id="Layer_1" version="1.1" xml:space="preserve" xmlns="http://www.w3.org/2000/svg" xmlns:xlink="http://www.w3.org/1999/xlink"><style type="text/css">
	.st0{fill:#7CB0D9;}
	.st1{opacity:0.1;enable-background:new    ;}
	.st2{fill:#CEE6EF;}
	.st3{fill:#71C080;}
	.st4{fill:#EEFAFF;}
</style><path class="st0" d="M76.9,103.2H43.1c-3.6,0-6.4-2.9-6.4-6.4V24.6c0-3.6,2.9-6.4,6.4-6.4h33.8c3.6,0,6.4,2.9,6.4,6.4v72.2  C83.3,100.3,80.5,103.2,76.9,103.2z"/><path class="st1" d="M77.7,102.7H43.9c-3.6,0-6.4-2.6-6.4-5.9V23.5c0-2,1.1-3.8,2.8-4.8c-2.1,0.9-3.6,2.9-3.6,5.3v73.4  c0,3.2,2.9,5.9,6.4,5.9h33.8c1.4,0,2.6-0.4,3.6-1C79.7,102.5,78.7,102.7,77.7,102.7z"/><path class="st2" d="M76.9,20.8h-8.4c-0.5,0-0.9,0.4-0.9,0.9v0.5c0,0.8-0.8,1.5-1.7,1.5H54.3c-0.9,0-1.7-0.7-1.7-1.5v-0.5  c0-0.5-0.4-0.9-0.9-0.9h-8.6c-2.1,0-3.8,1.6-3.8,3.5V97c0,1.9,1.7,3.5,3.8,3.5h33.7c2.1,0,3.8-1.6,3.8-3.5V24.3  C80.7,22.4,79,20.8,76.9,20.8z"/><path class="st0" d="M76.7,51.3l-8.2-7.7c-0.2-0.1-0.5-0.3-0.8-0.3h-2.6c-0.6,0-1.2,0.5-1.2,1.2v1.1c0,0.5-0.3,0.9-0.8,1.1l-2.7,1.1  c-0.3,0.1-0.6,0.1-0.8,0l-2.7-1.1c-0.5-0.2-0.8-0.6-0.8-1.1v-1.1c0-0.6-0.5-1.2-1.2-1.2h-2.6c-0.3,0-0.6,0.1-0.8,0.3l-8.2,7.7  c-0.4,0.4-0.5,1.1-0.1,1.6l3.4,4.2c0.4,0.5,1.1,0.6,1.6,0.2l1.7-1.3c0.8-0.6,1.9,0,1.9,0.9v16.5c0,0.6,0.5,1.2,1.2,1.2h14  c0.6,0,1.2-0.5,1.2-1.2V56.9c0-1,1.1-1.5,1.9-0.9l1.7,1.3c0.5,0.4,1.2,0.3,1.6-0.2l3.4-4.2C77.2,52.4,77.1,51.7,76.7,51.3z"/><path class="st3" d="M68.8,84.2H51.3c-1.1,0-2,0.9-2,2v3.3c0,1.1,0.9,2,2,2h17.3c1.1,0,2-0.9,2.2-2v-3.3  C70.8,85.1,69.9,84.2,68.8,84.2z"/><path class="st4" d="M74.1,33.8H45.9c-1.2,0-2.2-1-2.2-2.2v-0.2c0-1.2,1-2.2,2.2-2.2h28.2c1.2,0,2.2,1,2.2,2.2v0.2  C76.3,32.8,75.3,33.8,74.1,33.8z"/></svg>